<?xml version="1.0"?>
<svg xmlns="http://www.w3.org/2000/svg" xmlns:xlink="http://www.w3.org/1999/xlink" xmlns:svgjs="http://svgjs.com/svgjs" version="1.1" width="512" height="512" x="0" y="0" viewBox="0 0 512 512" style="enable-background:new 0 0 512 512" xml:space="preserve" class=""><g><g xmlns="http://www.w3.org/2000/svg"><g><path d="m156.684 355.316-42.38 26.632-11.81 27.559c-11.108 11.108-11.108 29.117 0 40.225 11.108 11.108 29.117 11.108 40.225 0l54.191-54.191z" fill="#b8b3d1" data-original="#5c586f" style="" class=""/><path d="m116.459 315.092-54.191 54.191c-11.108 11.108-11.108 29.117 0 40.225 11.108 11.108 29.117 11.108 40.225 0l54.191-54.191z" fill="#968fad" data-original="#6a647f" style="" class=""/><path d="m438.735 377.208c-2.095-11.832-13.279-19.847-25.128-17.853-21.702 3.652-61.945-.241-114.297-52.592l-88.273 88.273c36.789 8.387 50.27 31.45 55.194 48.044 2.803 9.447 11.597 15.952 21.44 15.488 31.047-1.463 45.499 16.801 52.189 32.818 5.008 11.988 19.581 16.707 30.792 10.142 70.18-41.101 73.433-94.103 68.083-124.32z" fill="#bc9bdd" data-original="#bc9bdd" style="" class=""/><path d="m152.644 98.394c1.994-11.849-6.021-23.033-17.853-25.128-30.216-5.35-83.219-2.097-124.319 68.084-6.565 11.211-1.846 25.784 10.142 30.792 16.017 6.691 34.281 21.143 32.818 52.189-.464 9.843 6.041 18.637 15.488 21.44 16.594 4.924 39.657 18.404 48.044 55.194l88.273-88.273c-52.352-52.353-56.245-92.596-52.593-114.298z" fill="#bc9bdd" data-original="#bc9bdd" style="" class=""/><circle cx="205.274" cy="306.726" fill="#6e6a83" r="105.353" data-original="#4f4c5f" style="" class=""/><path d="m373.866 9.459c-9.273-1.523-20.998-2.552-33.81-1.58l-37.07 80.609 60.72 2.066s21.041-22.056 28.483-53.721c2.975-12.681-5.462-25.264-18.323-27.374z" fill="#968fad" data-original="#6a647f" style="" class=""/><path d="m502.54 138.134c-2.109-12.862-14.692-21.298-27.375-18.324-31.665 7.443-53.721 28.483-53.721 28.483l2.066 60.72 80.609-37.07c.974-12.811-.056-24.536-1.579-33.809z" fill="#968fad" data-original="#6a647f" style="" class=""/><path d="m446.173 131.037c-15.329 8.295-24.728 17.257-24.728 17.257l2.066 60.72 42.558-19.571c-2.989-20.265-9.62-40.089-19.896-58.406z" fill="#6e6a83" data-original="#4f4c5f" style="" class=""/><path d="m380.992 65.775c-18.017-10.152-37.746-16.911-58.39-19.941l-19.615 42.654 60.72 2.066c-.001.001 8.982-9.418 17.285-24.779z" fill="#6e6a83" data-original="#4f4c5f" style="" class=""/><g fill="#bc9bdd"><path d="m340.056 7.879c-34.045 2.56-75.841 19.26-100.185 78.45l63.115 2.159c2.724-2.209 5.362-4.576 7.893-7.107 20.233-20.231 29.964-46.992 29.177-73.502z" fill="#bc9bdd" data-original="#bc9bdd" style="" class=""/><path d="m430.618 201.121c-2.531 2.531-4.897 5.169-7.107 7.893l2.159 63.115c59.19-24.344 75.891-66.139 78.45-100.185-26.509-.787-53.27 8.944-73.502 29.177z" fill="#bc9bdd" data-original="#bc9bdd" style="" class=""/><circle cx="200.985" cy="311.015" r="58.257" fill="#bc9bdd" data-original="#bc9bdd" style="" class=""/></g><path d="m423.511 209.014 2.159 63.115c15.678-6.448 28.374-14.121 38.617-22.55 4.851-23.262 4.82-47.345-.098-70.596-12.222 4.87-23.679 12.245-33.572 22.138-2.53 2.53-4.897 5.169-7.106 7.893z" fill="#b08bd7" data-original="#b08bd7" style=""/><path d="m297.481 44.007c-11.885 0-23.581 1.219-34.954 3.576-8.47 10.265-16.18 23.002-22.656 38.746l63.115 2.159c2.724-2.209 5.362-4.576 7.893-7.106 9.919-9.919 17.308-21.41 22.177-33.668-11.568-2.442-23.473-3.707-35.575-3.707z" fill="#b08bd7" data-original="#b08bd7" style=""/><path d="m396.838 115.162c-54.873-54.873-143.84-54.873-198.713 0s-33.425 122.392 21.448 177.265 122.392 76.321 177.265 21.448 54.873-143.84 0-198.713z" fill="#968fad" data-original="#6a647f" style="" class=""/><path d="m361.237 89.273c-52.771-26.876-118.971-18.253-163.113 25.889-42.627 42.627-39.19 92.884-9.813 138.917 13.558-101.459 72.49-155.327 172.926-164.806z" fill="#b8b3d1" data-original="#5c586f" style="" class=""/><ellipse cx="213.735" cy="178.421" fill="#ff9db0" rx="24.901" ry="31.268" transform="matrix(.707 -.707 .707 .707 -63.561 203.391)" data-original="#ff9db0" style="" class=""/><ellipse cx="333.579" cy="298.265" fill="#ff9db0" rx="24.901" ry="31.268" transform="matrix(.707 -.707 .707 .707 -113.202 323.237)" data-original="#ff9db0" style="" class=""/></g><g><path d="m266.283 167.211c2.375 3.392 7.051 4.218 10.444 1.842s4.217-7.052 1.842-10.445l-12.901-18.424c-2.375-3.393-7.052-4.217-10.444-1.842-3.393 2.376-4.217 7.052-1.842 10.445z" fill="#000000" data-original="#000000" style="" class=""/><path d="m344.773 245.701 18.424 12.901c3.392 2.375 8.068 1.551 10.444-1.842s1.551-8.069-1.842-10.445l-18.424-12.901c-3.393-2.375-8.068-1.551-10.444 1.842s-1.551 8.069 1.842 10.445z" fill="#000000" data-original="#000000" style="" class=""/><path d="m283.955 217.423c-2.985 2.986-7.844 2.986-10.831 0-2.986-2.986-2.986-7.845 0-10.831 2.929-2.929 2.929-7.677 0-10.605-2.928-2.929-7.677-2.929-10.605 0-8.834 8.834-8.834 23.208 0 32.041 4.121 4.121 9.449 6.294 14.856 6.57.281 5.616 2.575 10.861 6.58 14.866 8.855 8.856 23.186 8.855 32.041 0 2.929-2.929 2.929-7.677 0-10.606-2.928-2.928-7.677-2.929-10.605 0-2.993 2.993-7.838 2.994-10.831 0-2.993-2.993-2.994-7.837 0-10.831 2.909-2.909 2.948-7.658 0-10.605-2.974-2.973-7.734-2.87-10.605.001z" fill="#000000" data-original="#000000" style="" class=""/><path d="m248.913 179.615 8.897-8.897c2.929-2.929 2.929-7.677 0-10.605-2.928-2.929-7.677-2.929-10.605 0l-8.897 8.897c-2.929 2.928-2.929 7.676 0 10.605s7.676 2.928 10.605 0z" fill="#000000" data-original="#000000" style="" class=""/><path d="m342.974 273.676 8.897-8.897c2.929-2.929 2.929-7.677 0-10.606-2.928-2.928-7.677-2.928-10.605 0l-8.897 8.897c-2.929 2.928-2.929 7.677 0 10.605 2.929 2.93 7.677 2.929 10.605.001z" fill="#000000" data-original="#000000" style="" class=""/><path d="m326.19 373.159c-4.131-.355-7.76 2.699-8.117 6.825-.016.182-1.769 18.336-19.178 34.369-3.047 2.806-3.241 7.55-.435 10.596 2.808 3.05 7.552 3.238 10.596.435 21.641-19.933 23.875-43.132 23.959-44.11.357-4.125-2.699-7.759-6.825-8.115z" fill="#000000" data-original="#000000" style="" class=""/><path d="m360.425 451.18c3.449 2.279 8.103 1.339 10.39-2.124 16.217-24.548 12.811-47.604 12.658-48.574-.645-4.091-4.49-6.883-8.576-6.239-4.091.645-6.884 4.485-6.239 8.576.028.18 2.688 18.223-10.358 37.97-2.282 3.457-1.331 8.108 2.125 10.391z" fill="#000000" data-original="#000000" style="" class=""/><path d="m86.598 202.928c-2.806 3.046-2.611 7.79.435 10.596 3.039 2.798 7.783 2.619 10.596-.435 15.733-17.082 34.018-19.141 34.406-19.181 4.108-.375 7.144-4 6.788-8.114-.356-4.126-3.983-7.181-8.117-6.826-.976.085-24.175 2.318-44.108 23.96z" fill="#000000" data-original="#000000" style="" class=""/><path d="m111.501 128.51c-.97-.153-24.025-3.559-48.574 12.659-3.456 2.282-4.406 6.935-2.124 10.39 2.286 3.461 6.94 4.403 10.391 2.123 19.487-12.873 37.829-10.378 37.97-10.357 4.089.645 7.931-2.148 8.576-6.239s-2.148-7.931-6.239-8.576z" fill="#000000" data-original="#000000" style="" class=""/><path d="m17.721 179.086c19.737 8.245 29.229 23.355 28.213 44.91-.624 13.237 7.948 25.154 20.843 28.979 12.625 3.747 22.847 10.887 30.445 21.228-5.102 17.047-6.095 35.069-2.986 52.498l-37.277 37.279c-14.045 14.046-14.047 36.778 0 50.826 7.813 7.813 18.793 11.642 30.013 10.207-1.366 10.669 2.031 21.836 10.207 30.013 14.011 14.011 36.812 14.012 50.825 0l37.219-37.219c17.431 3.105 35.579 2.125 52.629-2.993 10.303 7.593 17.42 17.796 21.157 30.392 3.826 12.896 15.74 21.471 28.98 20.844 21.559-1.016 36.665 8.476 44.91 28.213 6.765 16.197 26.404 22.562 41.497 13.721 74.938-43.886 77.07-101.591 71.671-132.082-2.809-15.859-17.953-26.598-33.754-23.938-10.561 1.778-26.586 1.605-47.112-7.033 13.088-5.718 25.473-14.324 36.892-25.744 12.33-12.33 22.016-26.316 29.077-41.245 63.969-27.441 88.632-80.58 78.71-140.99-2.801-17.076-19.534-28.384-36.488-24.409-22.697 5.335-40.585 17.092-49.968 24.316-5.916-9.594-13.022-18.656-21.331-26.966-8.238-8.238-17.281-15.375-26.944-21.359 7.226-9.392 18.964-27.267 24.295-49.945 3.943-16.812-7.195-33.661-24.408-36.484-57.629-9.461-112.614 12.667-140.947 78.604-15.138 7.179-29.092 16.985-41.29 29.183-11.421 11.421-20.024 23.809-25.741 36.9-8.641-20.53-8.814-36.557-7.036-47.119 2.66-15.804-8.079-30.945-23.938-33.754-15.02-2.659-29.93-2.435-44.316.668-4.048.873-6.623 4.863-5.75 8.911s4.862 6.623 8.912 5.75c12.476-2.691 25.443-2.88 38.539-.56 7.785 1.378 13.062 8.779 11.763 16.496-2.548 15.137-1.884 39.469 15.257 70.271-2.296 11.718-2.362 24.419-.486 35.883-25.368 11.122-45.405 31.162-56.654 54.857-10.728-11.257-23.001-16.836-32.303-19.596-6.261-1.858-10.426-7.572-10.128-13.895 1.306-27.716-11.981-48.831-37.414-59.456-7.974-3.331-10.737-12.946-6.559-20.079 14.768-25.217 32.352-43.496 52.265-54.328 3.638-1.979 4.983-6.533 3.004-10.171s-6.534-4.983-10.171-3.004c-22.347 12.154-41.875 32.315-58.042 59.923-8.871 15.147-2.419 34.756 13.72 41.497zm49.843 225.114c-8.184-8.184-8.185-21.43 0-29.615l31.008-31.008c4.651 13.49 11.979 26.296 21.76 37.469l-23.154 23.154c-8.165 8.165-21.45 8.164-29.614 0zm69.834 40.219c-8.165 8.165-21.45 8.165-29.615 0s-8.165-21.45 0-29.615l23.154-23.154c11.461 10.044 24.223 17.226 37.447 21.783zm-1.332-68.501c-48.283-48.283-32.987-129.345 27.325-157.643 3.165 10.851 7.978 21.628 13.59 31.539-8.402 3.284-16.063 8.269-22.512 14.718-25.695 25.694-25.698 67.285 0 92.983 12.68 12.681 28.892 17.585 32.599 17.585 3.375 0 6.441-2.295 7.278-5.719.984-4.023-1.479-8.082-5.502-9.067-8.977-2.197-17.197-6.832-23.77-13.405-19.834-19.833-19.836-51.937 0-71.772 5.64-5.64 12.477-9.838 19.99-12.307 8.384 12.343 18.529 24.259 29.163 34.893.005.005.011.011.016.017.006.006.011.011.017.017 10.48 10.478 22.337 20.638 34.893 29.163-2.469 7.513-6.666 14.35-12.307 19.99-6.093 6.093-13.679 10.557-21.936 12.909-3.983 1.134-6.293 5.283-5.159 9.266 1.135 3.983 5.285 6.293 9.266 5.158 10.707-3.049 20.538-8.833 28.433-16.728 6.449-6.449 11.434-14.11 14.718-22.512 11.145 6.311 21.362 10.549 31.539 13.591-11.281 23.89-32.003 42.352-57.046 50.818-.139.047-.267.114-.401.168-34.906 11.622-73.757 2.775-100.194-23.662zm208.464-24.423c30.802 17.141 55.134 17.805 70.27 15.257 7.715-1.298 15.118 3.978 16.496 11.763 2.289 12.929 3.23 32.787-5.29 53.965-9.742 24.216-29.657 45.264-59.191 62.561-7.142 4.183-16.752 1.404-20.079-6.56-10.61-25.401-31.699-38.72-59.455-37.414-6.307.299-12.037-3.867-13.895-10.129-2.758-9.297-8.334-21.563-19.581-32.287 24.352-11.622 44.105-32.017 54.841-56.67 11.649 1.85 24.03 1.838 35.884-.486zm94.577-94.056c5.721-18.92 7.602-38.855 5.483-58.683 15.278-11.797 32.791-18.051 51.092-19.169-2.262 15.524-7.574 29.598-15.839 41.931-9.597 14.32-23.258 26.356-40.736 35.921zm37.712-130.296c8.446-1.98 16.849 3.628 18.259 12.234v.002c1.393 8.48 2.007 16.903 1.835 25.126-20.851.948-39.141 7.167-55.03 17.733-2.466-11.093-6.191-21.822-11.135-32.054 7.482-5.999 24.43-17.954 46.071-23.041zm-104.213-110.238c8.591 1.409 14.219 9.798 12.235 18.255-5.056 21.512-17.02 38.515-23.03 46.042-10.194-4.931-20.932-8.67-32.045-11.133 10.482-15.766 16.903-34.784 17.712-54.998 8.222-.173 16.647.441 25.128 1.834zm-82.141 15.236c12.333-8.265 26.407-13.577 41.93-15.838-.975 17.681-7.398 35.971-19.159 51.08-19.271-2.032-39.343-.378-58.659 5.437 9.559-17.45 21.585-31.093 35.888-40.679zm-87.062 88.356c52.36-52.358 136.559-51.524 188.083 0 51.854 51.855 51.854 136.229 0 188.083-14.533 14.533-30.331 23.763-47.223 27.649-.056.011-.113.018-.169.03-12.274 2.796-25.235 2.76-38.521-.105-30.376-6.554-58.614-26.912-80.701-48.995-.008-.008-.016-.016-.024-.024s-.015-.015-.023-.023c-22.055-22.063-42.444-50.332-48.995-80.701-2.866-13.286-2.902-26.246-.106-38.521.013-.056.019-.112.03-.167 3.886-16.894 13.116-32.693 27.649-47.226z" fill="#000000" data-original="#000000" style="" class=""/></g></g></g></svg>
