<svg id="Capa_1" enable-background="new 0 0 511.981 511.981" height="512" viewBox="0 0 511.981 511.981" width="512" xmlns="http://www.w3.org/2000/svg"><g><path d="m481.561 45.102 13.089 13.089c13.133 13.133 13.133 34.427 0 47.561l-157.665 157.665-60.649-60.649 157.664-157.666c13.134-13.133 34.427-13.133 47.561 0z" fill="#e6c6ae"/><path d="m351.829 127.273-75.494 75.494 60.649 60.65 36.15-36.15c-15.449-24.138-25.401-68.894-21.305-99.994z" fill="#e0ab99"/><path d="m166.766 233.787c29.091-29.091 78.585-16.263 117.024 22.176s51.267 87.933 22.176 117.024c-16.256 16.256-55.175 52.483-70.546 87.781-6.135 14.088-22.898 20.021-36.552 12.973-25.516-13.171-52.248-33.524-75.79-57.066-23.541-23.542-43.895-50.273-57.066-75.79-7.048-13.654-1.115-30.417 12.973-36.552 35.298-15.371 71.525-54.291 87.781-70.546z" fill="#f8f19c"/><path d="m160.627 239.991c-18.164 18.418-50.264 50.679-81.642 64.342-14.088 6.135-20.021 22.898-12.973 36.552 13.171 25.516 33.524 52.248 57.066 75.79 16.695 16.695 34.995 31.771 53.328 43.835-44.066-56.152-41.668-148.855-15.779-220.519z" fill="#f1d88c"/><g><path d="m71.194 391.635c-3.147 0-6.078-1.997-7.12-5.148-1.3-3.933.834-8.175 4.767-9.475 22.605-7.473 40.173-17.992 55.286-33.104 2.929-2.929 7.678-2.929 10.606 0 2.929 2.929 2.929 7.678 0 10.607-16.83 16.83-36.272 28.505-61.184 36.74-.781.258-1.575.38-2.355.38z" fill="#f8f19c"/></g><g><g fill="#f1aacb"><ellipse cx="131.206" cy="311.927" rx="20.075" ry="25.208" transform="matrix(.707 -.707 .707 .707 -182.136 184.138)"/><ellipse cx="227.825" cy="408.546" rx="20.075" ry="25.209" transform="matrix(.707 -.707 .707 .707 -222.157 280.759)"/></g></g><path d="m307.343 199.048 33.361 33.361c14.166 14.166 14.166 37.135 0 51.301l-32.389 32.389-84.663-84.663 32.389-32.389c14.167-14.166 37.135-14.166 51.302.001z" fill="#f1aacb"/><path d="m289.938 249.814c-37.643-37.643-89.957-47.521-122.258-24.831-4.55 3.196-5.177 9.69-1.246 13.622l134.712 134.712c3.932 3.931 10.426 3.304 13.622-1.246 22.691-32.3 12.813-84.613-24.83-122.257z" fill="#f5c9d3"/><path d="m106.855 321.149c3.133-7.258 4.654-15.374 4.105-23.901-1.646-25.568-22.191-46.333-47.742-48.219-30.377-2.243-55.718 21.739-55.718 51.639 0 13.504 5.172 25.798 13.64 35.015 5.316 5.786 7.379 13.911 5.103 21.431-8.667 28.632 12.256 60.492 45.046 60.492 25.947 0 46.982-21.034 46.982-46.982 0-10.206-3.256-19.65-8.785-27.354-4.641-6.466-5.785-14.814-2.631-22.121z" fill="#fbf1cf"/><circle cx="106.663" cy="173.685" fill="#f7dfb7" r="36.806"/><path d="m101.326 406.744c-42.319-6.407-45.963-48.448-33.639-67.91 1.846-2.915.748-6.719-2.325-8.289-29.631-15.134-30.738-67.992-14.932-80.891-24.378 4.203-42.93 25.434-42.93 51.014 0 13.504 5.171 25.797 13.64 35.014 5.316 5.786 7.379 13.912 5.103 21.433-8.667 28.632 12.257 60.491 45.046 60.491 11.424-.001 21.894-4.082 30.037-10.862z" fill="#f7dfb7"/><path d="m236.404 389.795 7.287-7.287c2.929-2.929 2.929-7.678 0-10.607s-7.678-2.929-10.606 0l-7.287 7.287c-2.929 2.929-2.929 7.678 0 10.606 2.929 2.931 7.677 2.93 10.606.001zm263.549-336.907-13.089-13.089c-16.036-16.037-42.131-16.037-58.167 0l-141.501 141.501c-12.965-1.63-26.524 2.511-36.458 12.445l-15.357 15.357c-24.707-6.617-51.282-4.816-72.012 9.745-4.553 3.198-7.425 8.612-6.96 14.741-13.936 14.132-27.854 27.958-44.003 40.808-9.085-18.264-27.326-31.273-48.638-32.846-35.429-2.627-63.768 25.583-63.768 59.118 0 14.891 5.546 29.128 15.618 40.089 3.591 3.909 4.912 9.343 3.447 14.184-6.63 21.899 1.377 45.862 19.924 59.628 3.326 2.468 8.023 1.774 10.492-1.553 2.469-3.326 1.774-8.023-1.553-10.492-13.267-9.847-19.233-27.626-14.507-43.237 2.995-9.893.405-20.882-6.758-28.678-16.64-18.11-15.165-45.995 2.491-62.395 9.119-8.47 21.02-12.623 33.511-11.706 29.943 2.211 49.401 33.647 37.304 61.669-4.168 9.656-2.888 20.671 3.423 29.466 17.34 24.16 2.474 58.443-27.135 62.154-4.11.515-7.024 4.265-6.509 8.374.514 4.103 4.256 7.024 8.375 6.509 11.285-1.414 21.409-6.259 29.398-13.397 24.618 26.674 56.344 52.829 87.907 69.122 17.478 9.022 39.005 1.415 46.868-16.644 12.558-28.839 41.768-58.628 63.86-80.409 5.993.456 11.481-2.315 14.751-6.969 14.569-20.741 16.356-47.326 9.745-72.013l15.357-15.357c9.934-9.934 14.075-23.493 12.445-36.458l107.251-107.251c2.929-2.929 2.929-7.678 0-10.606-2.929-2.929-7.678-2.929-10.606 0l-101.902 101.9c-1.911-3.4-4.3-6.602-7.19-9.492l-33.361-33.361c-2.89-2.89-6.092-5.279-9.492-7.19l136.15-136.149c10.188-10.188 26.766-10.188 36.954 0l13.089 13.089c10.188 10.189 10.188 26.766 0 36.954l-9.275 9.275c-2.929 2.929-2.929 7.678 0 10.606 2.929 2.929 7.678 2.929 10.606 0l9.275-9.275c16.037-16.036 16.037-42.13 0-58.167zm-271.41 404.885c-4.408 10.124-16.422 14.369-26.235 9.303-9.877-5.098-20.079-11.412-30.281-18.662 6.273-12.301 14.102-23.072 23.818-32.789 2.929-2.929 2.929-7.678 0-10.606-2.929-2.929-7.678-2.929-10.606 0-10.244 10.244-18.6 21.532-25.385 34.302-14.478-11.369-28.867-24.575-42.56-39.561 6.697-10.557 9.767-23.33 7.967-36.568 3.27-2.744 6.445-5.649 9.474-8.678 2.929-2.929 2.929-7.678 0-10.607s-7.678-2.929-10.606 0c-1.168 1.167-2.366 2.306-3.578 3.43-1.392-2.934-3.046-5.759-4.971-8.441-3.212-4.476-3.899-10-1.838-14.775 4.821-11.168 5.966-23.182 3.756-34.671 18.486-14.14 34.959-30.516 46.738-42.439l128.504 128.506c-18.785 18.56-50.4 50.572-64.197 82.256zm80.089-90.013c-.526.749-1.552.883-2.182.254-143.89-144.136-135.209-134.596-135.106-135.791.027-.314.162-.761.647-1.102 17.997-12.642 41.549-13.126 62.911-6.583.266.1.535.183.809.253 65.428 20.624 103.575 99.331 72.921 142.969zm26.769-130.048c11.22 11.22 11.22 29.475 0 40.695l-10.18 10.18c-13.773-32.558-41.461-60.268-74.056-74.056l10.18-10.18c11.22-11.22 29.476-11.219 40.695 0zm-228.737-19.721c24.431 0 44.306-19.876 44.306-44.306 0-24.431-19.876-44.306-44.306-44.306-24.431 0-44.306 19.876-44.306 44.306-.001 24.43 19.875 44.306 44.306 44.306zm0-73.613c16.16 0 29.306 13.146 29.306 29.306s-13.146 29.306-29.306 29.306-29.306-13.146-29.306-29.306c-.001-16.159 13.146-29.306 29.306-29.306zm50.579 151.683-7.287 7.287c-2.929 2.929-2.928 7.678 0 10.607 2.93 2.929 7.677 2.928 10.607-.001l7.287-7.287c2.929-2.929 2.928-7.678-.001-10.607s-7.677-2.928-10.606.001zm46.666 67.774c4.132-.284 7.252-3.864 6.969-7.996-.284-4.133-3.87-7.249-7.996-6.969-3.252.228-6.438-.966-8.735-3.264-2.298-2.298-3.487-5.482-3.264-8.735.284-4.132-2.835-7.712-6.968-7.997-4.131-.288-7.713 2.836-7.997 6.968-.521 7.581 2.257 15.005 7.622 20.37 5.363 5.365 12.789 8.144 20.369 7.623z"/></g></svg>