<svg height="512pt" viewBox="0 -44 512.001 512" width="512pt" xmlns="http://www.w3.org/2000/svg"><path d="m307.578125 56.492188c-56.628906 36.902343-34.359375-22.90625-147.613281-22.90625s-152.464844 133.617187-152.464844 217.601562c0 120.886719 69.109375 164.789062 104.742188 164.792969 16.484374 0 34.316406-4.226563 46.269531-16.273438 13.558593-13.667969 13.542969-33.816406 13.542969-51.808593 0-7.554688-6.125-13.679688-13.679688-13.679688s-13.679688 6.125-13.679688 13.679688c0 9.769531 1.847657 21.476562-5.390624 29.625-6.433594 7.234374-16.875 9.1875-26.105469 9.1875-30.539063 0-52.808594-44.539063-52.808594-83.347657 0-38.8125 3.496094-43.902343 3.496094-43.902343h243.6875l34.359375-94.804688zm0 0" fill="#73d98b"/><path d="m27.5 251.1875c0-81.984375 37.378906-211.238281 144.511719-217.351562-3.84375-.15625-7.839844-.25-12.046875-.25-113.253906 0-152.464844 133.617187-152.464844 217.601562 0 120.886719 69.109375 164.789062 104.742188 164.792969 3.824218 0 7.71875-.238281 11.597656-.738281-37.0625-6.171876-96.339844-52.09375-96.339844-164.054688zm0 0" fill="#00c756"/><path d="m504.5 188.652344v-9.351563c0-68.273437-48.265625-125.273437-112.539062-138.746093-8.183594-1.714844-15.710938-5.847657-21.230469-12.128907-11.265625-12.824219-27.777344-20.925781-46.191407-20.925781-9.367187 0-16.960937 7.59375-16.960937 16.960938v235h147.207031c27.457032 0 49.714844-22.257813 49.714844-49.714844v-6.09375l-5.765625-8zm0 0" fill="#b9ebc2"/><path d="m307.578125 259.460938h-243.6875s-3.5 5.089843-3.5 43.902343h261.128906c59.195313 0 117.3125 15.8125 168.347657 45.800781l14.632812 8.597657v-98.300781zm0 0" fill="#de8957"/><path d="m90.390625 303.363281c0-38.8125 3.5-43.902343 3.5-43.902343h-30s-3.5 5.089843-3.5 43.902343zm0 0" fill="#c76d33"/><path d="m268.289062 281.886719h-17.03125c-24.554687 0-44.527343-19.972657-44.527343-44.523438v-11.625c0-11.859375 9.613281-21.472656 21.472656-21.472656s21.476563 9.613281 21.476563 21.472656v11.625c0 .871094.707031 1.578125 1.578124 1.578125h17.03125c11.859376 0 21.472657 9.613282 21.472657 21.472656 0 11.859376-9.613281 21.472657-21.472657 21.472657zm0 0" fill="#b9ebc2"/><path d="m145.171875 281.886719h-17.03125c-24.550781 0-44.527344-19.972657-44.527344-44.523438v-11.625c0-11.859375 9.613281-21.472656 21.476563-21.472656 11.859375 0 21.472656 9.613281 21.472656 21.472656v11.625c0 .871094.707031 1.578125 1.578125 1.578125h17.03125c11.859375 0 21.476563 9.613282 21.476563 21.472656-.003907 11.859376-9.617188 21.472657-21.476563 21.472657zm0 0" fill="#b9ebc2"/><path d="m446.167969 168.089844c4.140625 0 7.5-3.355469 7.5-7.5v-12.414063c0-4.140625-3.359375-7.5-7.5-7.5-4.144531 0-7.5 3.359375-7.5 7.5v12.414063c0 4.144531 3.355469 7.5 7.5 7.5zm0 0"/><path d="m77.371094 413.875c12.019531 6.285156 24.078125 9.601562 34.878906 9.605469 21.433594 0 39.753906-6.566407 51.585938-18.488281 15.71875-15.84375 15.71875-38.675782 15.71875-57.09375 0-11.679688-9.5-21.179688-21.179688-21.179688s-21.179688 9.5-21.179688 21.179688c0 1.738281.054688 3.519531.105469 5.238281.195313 6.484375.953125 14.515625-3.957031 19.789062-4.925781 5.289063-13.316406 6.285157-20.144531 6.285157-19.707031 0-42.421875-29.316407-45.050781-68.347657h253.371093c27.277344 0 54.519531 3.453125 80.96875 10.261719 4.015625 1.03125 8.101563-1.382812 9.132813-5.394531 1.035156-4.011719-1.378906-8.101563-5.390625-9.132813-27.671875-7.125-56.171875-10.734375-84.710938-10.734375h-253.582031c0-.023437 0-.042969 0-.066406 0-9.5625.277344-19.375 1.765625-28.835937 0 0 15.683594 0 15.699219.019531 7.742187 11.136719 19.902344 19.050781 33.242187 21.523437 3.121094.578125 6.320313.878906 9.496094.882813h17.039063c13.074218-.265625 25.21875-9.589844 28.222656-22.425781 0 0 35.101562 0 35.121094.019531 7.765624 11.175781 19.851562 19.042969 33.238281 21.523437 3.128906.578125 6.316406.878906 9.496093.882813h17.039063c12.984375-.351563 25.234375-9.644531 28.222656-22.425781h200.480469v77.695312l-3.332031-1.957031c-18.441407-10.835938-38.042969-19.980469-58.261719-27.171875-3.898438-1.386719-8.1875.652344-9.578125 4.554687-1.386719 3.902344.648437 8.191407 4.554687 9.578125 19.324219 6.875 38.0625 15.613282 55.683594 25.96875 0 0 14.605469 8.582032 14.632813 8.601563 4.921875 2.890625 11.300781-.785157 11.300781-6.46875v-98.300781c0-4.140626-3.355469-7.5-7.5-7.5h-11.140625c11.449219-10.46875 18.640625-25.515626 18.640625-42.214844v-30.445313c0-34.46875-12.027344-68.097656-33.871094-94.683593-21.542968-26.222657-51.597656-44.476563-84.628906-51.402344-6.777344-1.417969-12.859375-4.878906-17.132812-9.738282-13.105469-14.917968-31.996094-23.476562-51.828126-23.476562-13.488281 0-24.460937 10.972656-24.460937 24.460938v27.910156c-21.289063 13.191406-26.941406 9.488281-40.867187.296875-16.039063-10.585938-40.277344-26.582031-99.246094-26.582031-46.914063 0-86.785156 22.386718-115.296875 64.738281-2.3125 3.4375-1.402344 8.097656 2.03125 10.410156 3.4375 2.3125 8.097656 1.402344 10.410156-2.03125 25.960937-38.5625 60.570313-58.117187 102.855469-58.117187 54.464844 0 75.570312 13.929687 90.984375 24.101562 15.636719 10.316406 26.527343 16.035156 49.128906 4.410156v182.363282h-4.078125c-.652344-2.136719-1.558594-4.195313-2.683594-6.125-5.140625-8.800782-14.824218-14.390626-25.027344-14.394532h-11.109374v-5.703125c0-15.746093-13.238282-28.976562-28.976563-28.976562-15.78125 0-28.972656 13.21875-28.972656 28.976562v11.621094c0 4.929687.714843 9.867187 2.097656 14.601563h-28.441406c-1.25-4.085938-3.421875-7.871094-6.292969-11.035157-5.433594-5.996093-13.332031-9.480469-21.421875-9.484375h-11.109375v-5.703125c0-15.765625-13.21875-28.972656-28.972656-28.972656-15.707032 0-28.976563 13.171875-28.976563 28.972656v11.625c0 4.925781.714844 9.867188 2.101563 14.597657 0 0-14.316406 0-14.324219 0-3.886719 0-6.402344 2.761718-7.53125 6.214843-4.566406 13.96875-3.46875 30.6875-3.46875 45.1875 0 20.84375 5.828125 42.722657 15.984375 60.023438 11.667969 19.878906 27.410156 30.824219 44.324219 30.824219 13.941406 0 24.90625-4.046876 31.710937-11.707032 8.019532-9.019531 7.667969-20.554687 7.382813-29.824218-.050781-1.679688-.097657-3.269532-.097657-4.78125 0-3.40625 2.769532-6.179688 6.179688-6.179688 3.40625 0 6.179688 2.773438 6.179688 6.25 0 17.207031 0 35-11.367188 46.457031-12.132812 12.230469-30.855469 14.054688-40.945312 14.054688-30.460938-.003907-97.242188-39.613281-97.242188-157.292969 0-42.796875 10.21875-89.847656 27.332031-125.855469 1.777344-3.742187.1875-8.214843-3.554687-9.992187-3.742188-1.78125-8.214844-.1875-9.992188 3.554687-18.292968 38.488281-28.785156 86.707031-28.785156 132.292969 0 38.144531 7.070312 92.101562 40.746094 132.527344 10.636718 12.769531 23.300781 23.199218 36.625 30.160156zm237.707031-357.382812v-32.027344c0-5.21875 4.246094-9.464844 9.460937-9.464844 15.519532 0 30.300782 6.699219 40.558594 18.375 6.492188 7.390625 15.25 12.410156 25.324219 14.523438 29.703125 6.222656 56.734375 22.644531 76.117187 46.238281 19.644532 23.914062 30.460938 54.15625 30.460938 85.164062v9.351563h-49.253906c-10.878906 0-21.617188-1.789063-31.910156-5.316406-3.921876-1.34375-8.183594.746093-9.527344 4.664062-1.339844 3.917969.746094 8.183594 4.664062 9.527344 11.863282 4.0625 24.234375 6.125 36.773438 6.125h49.253906v6.09375c0 23.277344-18.9375 42.214844-42.214844 42.214844h-139.707031zm-100.847656 169.246093c0-7.589843 6.390625-13.972656 13.972656-13.972656 7.613281 0 13.976563 6.367187 13.976563 13.972656v11.625c0 4.886719 4.113281 9.078125 9.078124 9.078125h17.03125c7.316407 0 13.613282 6.058594 13.933594 13.351563.34375 7.835937-6.054687 14.597656-13.933594 14.597656-6.585937 0-13.25.382813-19.820312-.117187-12.128906-.925782-23.285156-8.003907-29.339844-18.546876-3.1875-5.550781-4.898437-11.960937-4.898437-18.363281 0-.003906 0-11.621093 0-11.625zm-123.117188 0c0-7.589843 6.394531-13.972656 13.976563-13.972656 7.609375 0 13.972656 6.367187 13.972656 13.972656v11.625c0 4.90625 4.125 9.078125 9.078125 9.078125h17.03125c7.335937 0 13.613281 6.046875 13.933594 13.351563.34375 7.835937-6.054688 14.597656-13.933594 14.597656 0 0-17.03125 0-17.042969 0-13.132812-.011719-25.582031-7.289063-32.113281-18.664063-5.328125-9.28125-4.902344-19.613281-4.902344-29.988281zm0 0"/></svg>