<svg id="Capa_1" enable-background="new 0 0 512 512" height="512" viewBox="0 0 512 512" width="512" xmlns="http://www.w3.org/2000/svg"><g><path d="m134.007 299.167h242.986v30h-242.986z" transform="matrix(.416 -.91 .91 .416 -136.446 415.95)"/><path d="m0 0v512h512v-512zm482 30v36.5h-211.182l-38 50.833h-202.818v-87.333zm-452 452v-334.667h217.848l38-50.833h196.152v385.5z"/><path d="m62.75 56.833h30v30h-30z"/><path d="m124.292 56.833h30v30h-30z"/><path d="m185.833 56.833h30v30h-30z"/><path d="m98.668 239.929v31.798l-40.663 38.66 40.663 38.661v31.797c0 25.663 20.879 46.542 46.542 46.542h18.519v-30h-18.519c-9.121 0-16.542-7.421-16.542-16.542v-44.67l-27.124-25.788 27.124-25.787v-44.671c0-9.121 7.421-16.542 16.542-16.542h18.519v-30h-18.519c-25.663 0-46.542 20.879-46.542 46.542z"/><path d="m413.332 239.929c0-25.663-20.879-46.542-46.542-46.542h-18.519v30h18.519c9.121 0 16.542 7.421 16.542 16.542v44.671l27.124 25.787-27.124 25.788v44.67c0 9.121-7.421 16.542-16.542 16.542h-18.519v30h18.519c25.663 0 46.542-20.879 46.542-46.542v-31.797l40.663-38.661-40.663-38.66z"/></g></svg>