<?xml version="1.0"?>
<svg xmlns="http://www.w3.org/2000/svg" xmlns:xlink="http://www.w3.org/1999/xlink" xmlns:svgjs="http://svgjs.com/svgjs" version="1.1" width="512" height="512" x="0" y="0" viewBox="0 0 512.002 512.002" style="enable-background:new 0 0 512 512" xml:space="preserve" class=""><g><g xmlns="http://www.w3.org/2000/svg" id="XMLID_1650_"><g id="XMLID_1518_"><g id="XMLID_1519_"><path d="m10 294.001h308v104h-308z" fill="#d0a9ff" data-original="#bedaff" style="" class=""/></g></g><g id="XMLID_1516_"><g id="XMLID_1517_"><path d="m10 398.001h308v104h-308z" fill="#d5ea7a" data-original="#d5ea7a" style="" class=""/></g></g><g id="XMLID_2308_"><g id="XMLID_1515_"><path d="m54 146.001h44v44h-44z" fill="#ff7a7a" data-original="#ff7a7a" style="" class=""/></g><g id="XMLID_2311_"><path d="m142 146.001h44v44h-44z" fill="#ff7a7a" data-original="#ff7a7a" style="" class=""/></g><g id="XMLID_2310_"><path d="m230 146.001h44v44h-44z" fill="#ff7a7a" data-original="#ff7a7a" style="" class=""/></g><g id="XMLID_2309_"><path d="m10 190.001h308v104h-308z" fill="#ff7a7a" data-original="#ff7a7a" style="" class=""/></g></g><g id="XMLID_2070_"><g id="XMLID_2172_"><path d="m361.947 34.158h44v44h-44z" fill="#ffd88e" transform="matrix(.5 .866 -.866 .5 240.608 -304.429)" data-original="#ffd88e" style="" class=""/></g><g id="XMLID_2077_"><path d="m405.947 110.368h44v44h-44z" fill="#ffd88e" transform="matrix(.5 .866 -.866 .5 328.608 -304.429)" data-original="#ffd88e" style="" class=""/></g><g id="XMLID_2073_"><path d="m449.947 186.579h44v44h-44z" fill="#ffd88e" transform="matrix(.5 .866 -.866 .5 416.608 -304.429)" data-original="#ffd88e" style="" class=""/></g><g id="XMLID_2071_"><path d="m209.862 117.368h308v104h-308z" fill="#ffd88e" transform="matrix(.5 .866 -.866 .5 328.608 -230.429)" data-original="#ffd88e" style="" class=""/></g></g><g id="XMLID_332_"><path id="XMLID_376_" d="m510.66 211.631-22-38.105c-2.762-4.782-8.877-6.421-13.66-3.66l-29.445 17-12-20.785 29.445-17c2.297-1.326 3.973-3.51 4.659-6.072.687-2.562.327-5.292-.999-7.588l-22-38.105c-2.762-4.782-8.876-6.422-13.66-3.66l-29.445 17-12-20.785 29.445-17c4.783-2.761 6.422-8.877 3.66-13.66l-22-38.105c-2.761-4.782-8.877-6.421-13.66-3.66l-29.445 17-17-29.445c-1.326-2.297-3.51-3.973-6.072-4.659-2.561-.685-5.29-.327-7.588.999l-90.066 52c-4.783 2.761-6.422 8.877-3.66 13.66l39.837 69h-43.006c-5.522 0-10 4.477-10 10v34h-24v-34c0-5.523-4.478-10-10-10h-44c-5.522 0-10 4.477-10 10v34h-24v-34c0-5.523-4.478-10-10-10h-44c-5.522 0-10 4.477-10 10v34h-34c-5.522 0-10 4.477-10 10v312c0 5.523 4.478 10 10 10h308c5.522 0 10-4.477 10-10v-270.747l59.168 102.482c1.326 2.297 3.51 3.973 6.072 4.659.852.228 1.721.341 2.588.341 1.74 0 3.467-.455 5-1.34l90.066-52c4.783-2.761 6.422-8.877 3.66-13.66l-17-29.445 29.445-17c4.784-2.761 6.423-8.876 3.661-13.66zm-99.105-83.655 20.785-12 12 20.785-20.785 12-6-10.392zm-44-76.21 20.785-12 12 20.785-20.785 12-6.768-11.722zm-69.146 128.235h-14.409v-24.956zm-58.409-24h24v24h-24zm-88 0h24v24h-24zm-88 0h24v24h-24zm-44 44h288v84h-99c-5.522 0-10 4.477-10 10s4.478 10 10 10h99v84h-288v-84h99c5.522 0 10-4.477 10-10s-4.478-10-10-10h-99zm288 292h-288v-84h288zm91.488-176.925-144-249.416 72.746-42 144 249.416zm68.067-90.105-5.232-9.063-6.768-11.722 20.785-12 12 20.785z" fill="#000000" data-original="#000000" style=""/><path id="XMLID_386_" d="m164 304.001c2.63 0 5.21-1.07 7.069-2.93 1.86-1.86 2.931-4.44 2.931-7.07s-1.07-5.21-2.931-7.07c-1.859-1.86-4.439-2.93-7.069-2.93s-5.21 1.07-7.07 2.93-2.93 4.44-2.93 7.07 1.069 5.21 2.93 7.07 4.44 2.93 7.07 2.93z" fill="#000000" data-original="#000000" style=""/></g></g></g></svg>
