<svg id="Capa_1" enable-background="new 0 0 511.967 511.967" height="512" viewBox="0 0 511.967 511.967" width="512" xmlns="http://www.w3.org/2000/svg"><g><g><path d="m69.017 268.646h289.075v60h-289.075z" fill="#efd176" transform="matrix(.707 -.707 .707 .707 -148.626 238.477)"/></g><g><path d="m336.971 217.656-42.426-42.426-63.3 63.299-141.107 141.108 21.213 21.213 152.013-152.013 10.061 32.365z" fill="#e0bb5f"/></g><g><circle cx="47.711" cy="464.49" fill="#e8899e" r="40"/></g><g><path d="m40.64 457.419c-11.869 11.869-14.71 29.337-8.543 43.898-4.603-1.949-8.919-4.79-12.671-8.543-15.621-15.621-15.621-40.948 0-56.569s40.948-15.621 56.569 0c3.752 3.752 6.593 8.067 8.543 12.67-14.56-6.166-32.029-3.325-43.898 8.544z" fill="#e26e7e"/></g><g><path d="m125.493 443.276-56.569-56.569c-7.81-7.81-20.474-7.81-28.284 0-7.81 7.81-7.81 20.474 0 28.284l56.569 56.569c7.81 7.81 20.474 7.81 28.284 0 7.811-7.81 7.811-20.473 0-28.284z" fill="#efd176"/></g><g><path d="m153.777 414.992-56.569-56.569c-7.81-7.81-20.474-7.81-28.284 0-7.81 7.81-7.81 20.474 0 28.284l56.569 56.569c7.81 7.81 20.474 7.81 28.284 0 7.811-7.81 7.811-20.473 0-28.284z" fill="#f7ef87"/></g><g><path d="m99.673 389.172c-7.811 7.811-7.811 20.474 0 28.284l-30.749-30.749c-7.81-7.81-7.81-20.474 0-28.284 7.81-7.81 20.474-7.81 28.284 0l30.749 30.749c-7.81-7.81-20.473-7.811-28.284 0z" fill="#efd176"/></g><g><path d="m477.94 61.319-21.792 64.263c-2.294 6.766-1.113 14.227 3.16 19.952l40.584 54.383c10.76 14.418.316 34.916-17.673 34.686l-67.852-.867c-7.143-.091-13.874 3.338-17.999 9.171l-39.18 55.403c-10.388 14.689-33.109 11.09-38.449-6.09l-20.142-64.799c-2.121-6.822-7.462-12.164-14.284-14.284l-64.799-20.142c-17.18-5.34-20.778-28.062-6.09-38.449l55.403-39.18c5.833-4.125 9.262-10.856 9.171-17.999l-.867-67.852c-.23-17.989 20.267-28.433 34.686-17.673l54.383 40.584c5.725 4.273 13.187 5.454 19.952 3.16l64.263-21.792c17.036-5.779 33.303 10.488 27.525 27.525z" fill="#f7ef87"/></g><g><path d="m396.368 242.907c2.094-2.96 4.862-5.294 8.012-6.87-9.516-12.358-17.608-26.131-23.862-41.23-19.069-46.038-17.715-95.435-.12-138.134-5.028.282-10.066-1.164-14.199-4.249l-54.383-40.584c-14.418-10.76-34.916-.316-34.686 17.673l.867 67.852c.091 7.143-3.338 13.874-9.171 17.999l-55.403 39.18c-14.689 10.388-11.09 33.109 6.09 38.449l64.799 20.142c6.822 2.121 12.164 7.462 14.284 14.284l20.142 64.799c5.34 17.18 28.062 20.778 38.449 6.09z" fill="#efd176"/></g><g><g><path d="m323.64 107.277c-1.919 0-3.839-.732-5.303-2.196-2.929-2.93-2.929-7.678 0-10.607l8.485-8.485c2.929-2.928 7.678-2.928 10.606 0 2.929 2.93 2.929 7.678 0 10.607l-8.485 8.485c-1.464 1.463-3.383 2.196-5.303 2.196z"/></g><g><path d="m411.956 195.592c-1.919 0-3.839-.732-5.303-2.196-2.929-2.93-2.929-7.678 0-10.607l8.485-8.485c2.929-2.928 7.678-2.928 10.606 0 2.929 2.93 2.929 7.678 0 10.607l-8.485 8.485c-1.464 1.464-3.383 2.196-5.303 2.196z"/></g><g><path d="m378.187 162.875c-7.758 0-15.225-3.068-20.743-8.586-5.995-5.996-9.099-14.293-8.518-22.764.284-4.133 3.873-7.235 7.996-6.969 4.133.284 7.252 3.864 6.969 7.996-.285 4.145 1.231 8.201 4.16 11.13 2.928 2.928 6.988 4.434 11.127 4.158 4.136-.263 7.713 2.835 7.997 6.968s-2.835 7.713-6.968 7.997c-.674.047-1.348.07-2.02.07z"/></g></g><path d="m505.903 195.432-40.584-54.383c-2.797-3.748-3.57-8.63-2.068-13.06l21.792-64.262c3.597-10.605.912-22.112-7.006-30.03-7.918-7.919-19.425-10.604-30.032-7.008l-24.523 8.316c-3.923 1.33-6.024 5.589-4.694 9.512s5.589 6.025 9.511 4.693l24.523-8.316c5.236-1.774 10.698-.502 14.607 3.409 3.91 3.909 5.184 9.37 3.408 14.606l-21.792 64.262c-3.088 9.105-1.499 19.142 4.252 26.848l40.584 54.383c3.307 4.432 3.782 10.019 1.272 14.946-2.48 4.868-7.195 7.756-12.641 7.756-.066 0-.132 0-.198-.001l-67.852-.867c-.124-.002-.248-.003-.373-.003-9.474 0-18.366 4.595-23.846 12.343l-39.181 55.403c-3.193 4.516-8.361 6.694-13.82 5.828-5.461-.865-9.702-4.534-11.343-9.814l-20.143-64.799c-2.854-9.182-10.039-16.366-19.22-19.22l-64.799-20.143c-5.28-1.641-8.949-5.882-9.813-11.343-.865-5.462 1.314-10.628 5.829-13.821l55.402-39.181c7.85-5.551 12.463-14.604 12.34-24.218l-.867-67.852c-.071-5.529 2.829-10.329 7.755-12.84 4.926-2.509 10.512-2.035 14.945 1.272l54.384 40.584c7.707 5.75 17.743 7.342 26.846 4.252l11.311-3.835c3.923-1.33 6.025-5.588 4.695-9.511-1.331-3.923-5.588-6.023-9.511-4.694l-11.312 3.835c-4.428 1.501-9.31.729-13.058-2.068l-54.382-40.582c-8.976-6.696-20.749-7.699-30.726-2.616-9.978 5.084-16.087 15.199-15.944 26.396l.867 67.852c.06 4.676-2.184 9.08-6.002 11.78l-55.402 39.181c-9.143 6.466-13.735 17.354-11.983 28.414s9.483 19.996 20.177 23.32l31.83 9.894-144.838 144.838-1.768-1.768c-10.722-10.721-28.169-10.721-38.891 0-5.194 5.194-8.055 12.101-8.055 19.446 0 .273.012.545.02.817-7.308-.212-14.684 2.458-20.249 8.022-5.194 5.193-8.055 12.1-8.055 19.445 0 6.753 2.423 13.13 6.848 18.152-7.482 2.236-14.388 6.282-20.007 11.901-18.52 18.52-18.52 48.654 0 67.175 9.26 9.26 21.424 13.89 33.587 13.89 12.164 0 24.328-4.63 33.588-13.891 5.611-5.611 9.662-12.522 11.9-20.006 5.021 4.425 11.399 6.848 18.151 6.848 7.346 0 14.251-2.86 19.445-8.054 5.568-5.569 8.237-12.951 8.022-20.263.272.008.544.02.817.02 7.042 0 14.084-2.681 19.446-8.041 10.722-10.723 10.722-28.169 0-38.892l-1.768-1.768 37.219-37.219c2.929-2.93 2.929-7.678 0-10.607-2.929-2.928-7.678-2.928-10.606 0l-37.22 37.22-31.819-31.82 150.415-150.414 16.785 5.218c4.465 1.388 7.96 4.883 9.348 9.349l5.44 17.499-91.734 91.734c-2.929 2.93-2.929 7.678 0 10.607 1.464 1.464 3.384 2.196 5.303 2.196s3.839-.732 5.303-2.196l86.158-86.158 9.672 31.116c3.324 10.693 12.26 18.425 23.321 20.177 1.559.247 3.112.367 4.652.367 9.387 0 18.207-4.496 23.761-12.351l39.18-55.402c2.701-3.817 7.071-6.026 11.781-6.003l67.851.867c11.184.187 21.312-5.965 26.396-15.943 5.086-9.977 4.084-21.751-2.614-30.726zm-458.191 301.558c-8.681 0-16.843-3.381-22.981-9.519-12.671-12.672-12.671-33.291 0-45.962 5.934-5.934 13.973-9.332 22.316-9.504l33.152 33.152c-.177 8.344-3.578 16.386-9.505 22.313-6.14 6.139-14.302 9.52-22.982 9.52zm72.478-30.732c-2.361 2.36-5.5 3.66-8.839 3.66s-6.478-1.3-8.839-3.661l-56.568-56.568c-4.874-4.874-4.874-12.804 0-17.678 2.438-2.438 5.638-3.655 8.839-3.655s6.402 1.219 8.839 3.655l56.568 56.569c4.873 4.873 4.873 12.804 0 17.678zm28.284-28.285c-4.875 4.876-12.805 4.874-17.678 0l-56.569-56.569c-2.36-2.36-3.661-5.499-3.661-8.838s1.3-6.479 3.661-8.839c4.874-4.875 12.804-4.875 17.678 0l56.569 56.569c4.874 4.873 4.874 12.804 0 17.677z"/></g></svg>