<?xml version="1.0" encoding="iso-8859-1"?>
<!-- Generator: Adobe Illustrator 19.0.0, SVG Export Plug-In . SVG Version: 6.00 Build 0)  -->
<svg version="1.1" id="Capa_1" xmlns="http://www.w3.org/2000/svg" xmlns:xlink="http://www.w3.org/1999/xlink" x="0px" y="0px"
	 viewBox="0 0 512 512" style="enable-background:new 0 0 512 512;" xml:space="preserve">
<path style="fill:#FC5271;" d="M483.62,94.721c-13.064-13.064-30.553-19.137-48.024-18.311c0.826-17.47-5.247-34.96-18.311-48.024
	c-25.216-25.216-66.919-24.395-93.148,1.833c-44.212,44.212-8.516,166.166-8.516,166.166s121.954,35.696,166.166-8.516
	C508.015,161.641,508.836,119.937,483.62,94.721z"/>
<polygon style="fill:#FFE18D;" points="29.939,397.214 10.007,501.999 114.792,482.067 "/>
<path style="fill:#34D4E0;" d="M326.791,270.069L114.792,482.067l-84.853-84.853l211.999-211.999c7.81-7.81,20.474-7.81,28.284,0
	l56.569,56.569C334.601,249.595,334.601,262.258,326.791,270.069z"/>
<path style="fill:#FC5271;" d="M298.452,298.407l28.338-28.338c7.81-7.81,7.81-20.474,0-28.284l-56.569-56.569
	c-7.81-7.81-20.474-7.81-28.284,0l-28.338,28.338L298.452,298.407z"/>
<path d="M176.46,321.403l-0.112,0.112c-3.905,3.905-3.905,10.237,0,14.143c1.953,1.953,4.512,2.929,7.071,2.929
	s5.119-0.976,7.071-2.929l0.112-0.112c3.905-3.905,3.905-10.237,0-14.143S180.365,317.498,176.46,321.403z"/>
<path d="M333.862,234.713L312.649,213.5l5.942-5.943c10.687,2.782,34.913,8.494,62.594,11.105
	c9.579,0.904,18.631,1.354,27.164,1.354c36.812,0,63.832-8.399,80.51-25.077c30.085-30.085,30.907-78.215,1.833-107.29
	c-12.088-12.087-28.201-19.477-45.322-21.013c-1.537-17.119-8.926-33.235-21.013-45.322C410.22,7.178,391.242-0.363,370.895,0.013
	c-20.19,0.397-39.306,8.614-53.828,23.135c-20.543,20.543-28.524,56.77-23.723,107.673c2.611,27.681,8.323,51.907,11.105,62.594
	l-5.942,5.943l-21.214-21.214c-11.697-11.696-30.729-11.696-42.427,0L22.868,390.143c-1.475,1.475-2.391,3.297-2.752,5.203l0,0
	L0.183,500.131c-0.619,3.252,0.412,6.599,2.752,8.94C4.828,510.964,7.379,512,10.006,512c0.622,0,1.247-0.058,1.869-0.176
	l104.785-19.932l0,0c1.906-0.361,3.728-1.277,5.203-2.752l211.999-212l0,0C345.559,265.443,345.559,246.41,333.862,234.713z
	 M331.209,37.291c22.287-22.288,57.729-23.111,79.005-1.833c10.657,10.656,16.124,25.033,15.394,40.48
	c-0.133,2.813,0.926,5.552,2.917,7.543s4.73,3.046,7.543,2.917c15.442-0.722,29.823,4.737,40.48,15.394
	c21.277,21.276,20.455,56.718-1.833,79.005c-14.362,14.362-39.919,19.103-66.835,19.102c-31.435-0.001-64.719-6.47-84.144-11.635
	C314.132,152.219,300.029,68.471,331.209,37.291z M22.577,489.429l4.643-24.408l19.765,19.765L22.577,489.429z M70.749,480.266
	L31.74,441.258l4.491-23.608l58.126,58.126L70.749,480.266z M114.792,467.925L86.507,439.64l75.976-75.975
	c3.905-3.905,3.905-10.237,0-14.143c-3.905-3.904-10.237-3.904-14.142,0l-75.976,75.975l-28.284-28.282L213.58,227.716L241.864,256
	l-37.897,37.897c-3.905,3.905-3.905,10.237,0,14.143c1.953,1.952,4.512,2.929,7.071,2.929s5.119-0.977,7.071-2.929l37.897-37.897
	l28.284,28.284L114.792,467.925z M319.719,262.997l-21.286,21.286l-70.71-70.71l21.286-21.286c3.898-3.899,10.243-3.899,14.142,0
	l56.569,56.569C323.619,252.755,323.619,259.098,319.719,262.997z"/>
<path d="M311.983,491.999h-0.012c-5.523,0-9.994,4.477-9.994,10s4.483,10,10.006,10s10-4.477,10-10S317.506,491.999,311.983,491.999
	z"/>
<path d="M501.994,491.999H346.982c-5.523,0-10,4.477-10,10s4.477,10,10,10h155.012c5.523,0,10-4.477,10-10
	S507.517,491.999,501.994,491.999z"/>
<path d="M276.483,491.999H141.994c-5.523,0-10,4.477-10,10s4.477,10,10,10h134.488c5.523,0,10-4.477,10-10
	S282.006,491.999,276.483,491.999z"/>
<path d="M387.028,181.77c0,0,0.284,0.062,0.819,0.169c0.661,0.132,1.319,0.195,1.968,0.195c4.67,0,8.847-3.29,9.796-8.045
	c1.081-5.417-2.434-10.683-7.85-11.764l-0.476-0.098c-5.396-1.171-10.711,2.244-11.89,7.636
	C378.216,175.257,381.637,180.586,387.028,181.77z"/>
<path d="M424.987,183.81c0.39,0,0.784-0.023,1.18-0.069c8.972-1.055,16.772-3.331,23.185-6.764
	c11.162-5.977,18.288-15.882,20.064-27.891c1.934-13.074-2.833-27.538-12.146-36.851c-3.905-3.905-10.237-3.905-14.143,0
	c-3.905,3.905-3.905,10.237,0,14.143c4.836,4.836,7.511,12.971,6.503,19.781c-0.851,5.751-4.122,10.188-9.721,13.187
	c-4.195,2.247-9.604,3.771-16.078,4.532c-5.485,0.645-9.409,5.614-8.764,11.099C415.667,180.066,419.987,183.81,424.987,183.81z"/>
<g>
</g>
<g>
</g>
<g>
</g>
<g>
</g>
<g>
</g>
<g>
</g>
<g>
</g>
<g>
</g>
<g>
</g>
<g>
</g>
<g>
</g>
<g>
</g>
<g>
</g>
<g>
</g>
<g>
</g>
</svg>
