<?xml version="1.0" encoding="iso-8859-1"?>
<!-- Generator: Adobe Illustrator 19.0.0, SVG Export Plug-In . SVG Version: 6.00 Build 0)  -->
<svg version="1.1" id="Capa_1" xmlns="http://www.w3.org/2000/svg" xmlns:xlink="http://www.w3.org/1999/xlink" x="0px" y="0px"
	 viewBox="0 0 512 512" style="enable-background:new 0 0 512 512;" xml:space="preserve">
<g>
	<g>
		<path d="M355.441,247.961L498.693,87.432c18.511-20.738,17.605-52.39-2.063-72.057C486.716,5.46,473.534,0,459.513,0
			c-12.913,0-25.321,4.728-34.938,13.312L264.044,156.565L107.48,0L0,107.48l150.452,150.451l-22.38,19.971l-1.701,1.519
			l-31.064,51.772L40.32,364.185L0,512l147.821-40.314l32.992-54.986l51.771-31.064l21.49-24.081L404.52,512L512,404.52
			L355.441,247.961z M444.552,35.693c4.112-3.671,9.426-5.693,14.961-5.693c6.008,0,11.656,2.34,15.904,6.588
			c8.428,8.428,8.821,21.986,0.894,30.867L302.313,262.439l-52.747-52.747L444.552,35.693z M42.426,107.48l65.055-65.055
			l30.153,30.153l-42.426,42.427l21.213,21.213l42.426-42.427L189,123.944l-42.426,42.427l21.213,21.213l42.426-42.427
			l31.413,31.413l-68.754,61.354L42.426,107.48z M128.297,445.914l-56.365,15.372l35.868-35.868l-21.213-21.213l-35.868,35.868
			l15.372-56.365l37.822-22.694l47.078,47.078L128.297,445.914z M172.204,386.879l-47.078-47.077l15.911-26.517l57.684,57.684
			L172.204,386.879z M222.291,352.113l-62.399-62.399l67.255-60.016l55.16,55.16L222.291,352.113z M404.519,469.574L274.08,339.134
			l61.354-68.754l31.408,31.407l-42.427,42.426l21.213,21.213L388.055,323l30.153,30.153l-42.427,42.427l21.213,21.213
			l42.427-42.427l30.153,30.153L404.519,469.574z"/>
	</g>
</g>
<g>
</g>
<g>
</g>
<g>
</g>
<g>
</g>
<g>
</g>
<g>
</g>
<g>
</g>
<g>
</g>
<g>
</g>
<g>
</g>
<g>
</g>
<g>
</g>
<g>
</g>
<g>
</g>
<g>
</g>
</svg>
