<?xml version="1.0"?>
<svg xmlns="http://www.w3.org/2000/svg" xmlns:xlink="http://www.w3.org/1999/xlink" xmlns:svgjs="http://svgjs.com/svgjs" version="1.1" width="512" height="512" x="0" y="0" viewBox="0 0 511.996 511.996" style="enable-background:new 0 0 512 512" xml:space="preserve" class=""><g><g xmlns="http://www.w3.org/2000/svg"><path d="m143.659 82.393h-67.458c-4.106 0-7.435 3.329-7.435 7.435v60.023c0 4.106 3.329 7.435 7.435 7.435h67.458z" fill="#37fffd" data-original="#8de1e0" style="" class=""/><path d="m104.392 157.286h39.267v-74.893h-33.364c3.58 25.909 2.539 54.584-5.903 74.893z" fill="#76ffa6" data-original="#6fcd90" style="" class=""/><g><path d="m199.112 503.658c-12.81-3.47-20.382-16.667-16.913-29.477 5.402-19.945 7.221-49.834 5.886-56.858-3.256-12.771 4.391-25.804 17.16-29.17 12.832-3.383 25.979 4.277 29.362 17.11 4.833 18.329-.337 60.501-6.019 81.482-3.452 12.746-16.604 20.397-29.476 16.913zm-10.998-86.223c.007.028.014.054.021.08-.007-.027-.014-.054-.021-.08z" fill="#ffe096" data-original="#8daee1" style="" class=""/><path d="m326.059 477.348c-5.509-19.478-17.26-32.886-39.294-44.834-11.667-6.327-15.996-20.913-9.67-32.579 6.328-11.667 20.913-15.996 32.579-9.67 33.144 17.973 53.63 42.179 62.631 74.002 3.612 12.771-3.813 26.051-16.583 29.664-12.82 3.627-26.066-3.863-29.663-16.583z" fill="#ffe096" data-original="#8daee1" style="" class=""/><path d="m97.217 390.643c-11.259-7.025-14.692-21.848-7.668-33.108 12.988-20.817 36.78-37.744 65.277-46.441 29.356-8.958 59.338-8.167 84.425 2.23 12.26 5.081 18.08 19.139 12.999 31.399-5.081 12.261-19.143 18.081-31.399 12.999-31.992-13.257-76.519 2.803-90.526 25.253-7.048 11.295-21.88 14.671-33.108 7.668z" fill="#ffd673" data-original="#cde9fa" style="" class=""/><path d="m320.993 357.016c-12.747-3.696-20.083-17.025-16.388-29.772 3.696-12.747 17.022-20.084 29.772-16.388 15.564 4.513 29.49 3.558 39.213-2.692 9.361-6.017 15.306-17.218 17.671-33.292 1.932-13.13 14.139-22.206 27.272-20.277 13.13 1.931 22.209 14.141 20.277 27.271-9.45 64.238-60.76 91.693-117.817 75.15z" fill="#ffd673" data-original="#cde9fa" style="" class=""/><path d="m418.532 254.595c-13.132-1.929-25.34 7.147-27.271 20.277-2.364 16.074-8.31 27.275-17.671 33.292-9.723 6.25-23.649 7.205-39.213 2.692-12.75-3.697-26.076 3.641-29.772 16.387-3.695 12.747 3.641 26.076 16.388 29.772 3.129.908 6.24 1.674 9.328 2.318 48.558-14.541 90.313-45.274 105.083-93.705-3.608-5.76-9.619-9.966-16.872-11.033z" fill="#ffe096" data-original="#8daee1" style="" class=""/><path d="m362.398 374.771c0-45.865-43.541-83.047-106.401-83.047s-106.401 37.181-106.401 83.047 43.541 74.028 106.401 74.028 106.401-28.162 106.401-74.028z" fill="#ffe8a3" data-original="#a2ddfd" style="" class=""/><path d="m228.736 202.342c-1.496 16.584-16.154 28.815-32.738 27.318-14.369-1.297-25.47-12.473-27.206-26.223l-.132-1.096c-5.186-40.952-26.876-69.569-60.09-95.395-19.854-15.438-23.434-44.048-7.996-63.903 17.697-22.76 51.982-23.613 70.75-1.432 4.484 8.462 65.849 67.238 57.412 160.731z" fill="#ffe096" data-original="#8daee1" style="" class=""/><path d="m121.929 118.085c25.644 23.02 42.278 49.088 46.732 84.258l.132 1.096c1.736 13.749 12.837 24.926 27.206 26.223 16.584 1.497 31.241-10.734 32.738-27.318 4.858-53.835-13.428-96.155-30.671-123.99-27.55 7.484-53.859 20.612-76.137 39.731z" fill="#ffb14c" data-original="#6a95d6" style="" class=""/><path d="m411.941 113.877c-31.51 21.272-63.18 50.838-68.608 88.466l-.262 1.817c-2.375 16.46-17.643 27.879-34.103 25.504-14.159-2.043-24.583-13.646-25.71-27.322-3.788-45.794 15.011-88.625 42.361-125.096 13.611-18.132 28.135-32.769 28.02-32.649 17.422-18.131 46.243-18.705 64.374-1.283 20.447 19.649 18.504 53.74-6.072 70.563z" fill="#ffe096" data-original="#8daee1" style="" class=""/><path d="m413.759 229.229c0 70.974-70.632 113.529-157.762 113.529s-157.762-42.555-157.762-113.529 70.632-128.509 157.762-128.509 157.762 57.535 157.762 128.509z" fill="#ffd673" data-original="#cde9fa" style="" class=""/><g><g><ellipse cx="160.409" cy="247.414" fill="#ffffff" rx="35.27" ry="28.087" data-original="#ffffff" style="" class=""/><ellipse cx="351.585" cy="247.414" fill="#ffffff" rx="35.27" ry="28.087" data-original="#ffffff" style="" class=""/><ellipse cx="255.997" cy="225.833" fill="#5d6774" rx="18.722" ry="20.95" data-original="#4e5660" style="" class=""/></g></g></g><g><path d="m293.445 82.393h-67.458c-4.106 0-7.435 3.329-7.435 7.435v60.023c0 4.106 3.329 7.435 7.435 7.435h67.458z" fill="#ffaddf" data-original="#d0c3e8" style="" class=""/><path d="m293.445 82.393h74.893v74.893h-74.893z" fill="#9953ff" data-original="#f6ee86" style="" class=""/><path d="m443.23 82.393h-74.893v74.893h67.458c4.106 0 7.435-3.329 7.435-7.435z" fill="#37fffd" data-original="#8de1e0" style="" class=""/><path d="m218.552 307.072h-67.458c-4.106 0-7.435 3.329-7.435 7.435v60.023c0 4.106 3.329 7.435 7.435 7.435h67.458z" fill="#76ffa6" data-original="#6fcd90" style="" class=""/><path d="m286.01 307.072h-67.458v74.893h74.893v-67.458c0-4.107-3.329-7.435-7.435-7.435z" fill="#9953ff" data-original="#f6ee86" style="" class=""/><path d="m293.445 381.965h-74.893v67.458c0 4.106 3.329 7.435 7.435 7.435h60.023c4.106 0 7.435-3.329 7.435-7.435z" fill="#f3347c" data-original="#eda1ab" style="" class=""/><path d="m435.796 7.5h-67.458v74.893h74.893v-67.458c-.001-4.106-3.329-7.435-7.435-7.435z" fill="#76ffa6" data-original="#6fcd90" style="" class=""/><path d="m368.338 7.5h-67.458c-4.106 0-7.435 3.329-7.435 7.435v67.458h74.893z" fill="#f3347c" data-original="#eda1ab" style="" class=""/></g><path d="m450.731 149.851v-134.916c0-8.235-6.7-14.935-14.935-14.935h-134.916c-8.235 0-14.935 6.7-14.935 14.935v59.958h-59.958c-7.085 0-13.021 4.964-14.544 11.593-9.267-17.133-19.309-30.536-27.563-40.827-2.59-3.23-7.311-3.75-10.543-1.158-3.232 2.591-3.75 7.312-1.158 10.543 8.934 11.14 20.074 26.095 29.728 45.645-21.546 6.156-41.449 15.998-58.231 28.762-8.322-9.629-18.358-18.981-30.502-28.424-16.558-12.875-19.554-36.82-6.679-53.378 9.867-12.689 26.77-17.814 42.063-12.755 3.933 1.302 8.175-.832 9.477-4.764 1.301-3.933-.832-8.175-4.765-9.477-21.306-7.049-44.862.1-58.617 17.789-8.38 10.778-11.934 23.801-10.996 36.451h-7.456c-8.235 0-14.935 6.7-14.935 14.935v60.024c0 8.235 6.7 14.934 14.935 14.934h34.247c-30.386 46.622-27.456 108.365 20.944 147.454-20.808 10.074-37.711 24.502-48.207 41.326-9.202 14.75-4.689 34.237 10.062 43.441 14.808 9.235 34.275 4.627 43.44-10.061.716-1.147 1.562-2.294 2.502-3.433 1.083 1.431 2.411 2.66 3.93 3.624 3.582 21.655 16.582 39.369 37.217 51.463-1.007 12.403-2.96 24.695-5.378 33.621-4.544 16.781 5.411 34.131 22.192 38.677 16.784 4.545 34.132-5.417 38.676-22.192 1.818-6.712 3.524-15.187 4.914-24.348h45.268c7.695 0 14.046-5.851 14.846-13.338 9.084 7.87 14.699 16.752 17.986 28.37 4.714 16.667 22.054 26.53 38.922 21.758 7.247-2.05 13.528-6.632 17.687-12.901 2.29-3.452 1.348-8.106-2.104-10.396-3.453-2.291-8.107-1.348-10.396 2.104-7.716 11.634-25.81 9.015-29.675-4.648-3.268-11.557-8.569-21.184-16.35-29.59 11.182-4.493 20.794-10.312 28.638-17.265 6.498 7.962 11.63 16.594 15.543 26.229 1.567 3.857 5.952 5.678 9.771 4.126 3.838-1.559 5.685-5.934 4.126-9.771-4.681-11.524-11.12-22.144-19.151-31.673 10.822-14.33 15.313-31.4 13.737-49.503 39.064-6.483 69.443-35.974 76.64-84.903 2.522-17.151-9.339-33.157-26.459-35.757 4.494-26.689-.938-56.082-18.175-82.415h34.2c8.237.001 14.937-6.699 14.937-14.934zm-74.893-134.851h59.893l.029 59.893h-59.922zm-15 0v59.893h-59.9l-.058-59.893zm0 74.893v59.916l-59.893.019v-59.935zm-74.893 0v59.939l-59.893.019c-.03-27.845-.047-42.686-.065-59.958zm-209.679 59.958-.065-59.958h10.779c3.335 8.787 9.04 16.796 16.987 22.975 11.292 8.78 20.58 17.412 28.226 26.234-3.675 3.412-6.891 6.695-10.379 10.688zm59.893 215.724c-5.114 4.152-9.217 8.654-12.197 13.43-4.825 7.732-15.043 10.097-22.775 5.274-7.733-4.825-10.1-15.041-5.275-22.774 8.717-13.972 22.796-26.1 40.247-34.879zm15 8.897c-.075-69.043.038-58.993-.017-59.9h59.91v59.9c-16.281.005-59.334.09-59.893 0zm7.783 14.992h52.109v45.927c-28.074-8.209-46.49-24.463-52.109-45.927zm62.407 95.32c-2.382 8.797-11.479 14.02-20.277 11.635-8.798-2.383-14.017-11.479-11.634-20.277 2.256-8.329 4.134-19.229 5.309-30.511 5.131 2.063 10.601 3.844 16.385 5.336.761 7.372 6.909 13.156 14.428 13.369-1.236 7.717-2.707 14.894-4.211 20.448zm4.703-35.362c0-17.644 0-33.311 0-59.958h59.929c.004 7.645.023 46.543.029 59.893-6.573-.001-53.468.058-59.958.065zm0-74.958v-59.893h59.893c.011 23.569.019 39.882.029 59.893zm114.671 37.806c-.193.193-.373.395-.541.603-9.164 9.949-22.427 17.63-39.237 22.52v-89.043c14.329-2.576 27.75-6.393 40.077-11.331 9.379 12.125 13.877 25.848 13.877 39.752-.001 14.491-4.927 27.181-14.176 37.499zm76.717-150.255c9.018 1.327 15.275 9.743 13.949 18.76-5.9 40.112-29.821 66.699-64.523 72.327-2.477-8.62-6.47-16.814-11.862-24.4 28.413-14.461 51.385-36.669 61.216-66.979.393.126.798.23 1.22.292zm-11.181-32.786c0 57.228-48.88 90.978-105.314 101.848v-16.571c0-8.235-6.7-14.934-14.935-14.934h-134.916c-3.078 0-5.94.937-8.319 2.539-24.261-18.801-37.04-43.869-37.04-72.881 0-57.476 48.329-101.008 105.317-115.451v36.074c0 8.235 6.7 14.934 14.935 14.934h157.143c15.132 19.296 23.129 41.501 23.129 64.442zm-30.421-79.425v-59.911h59.929l.029 59.893c-21.272.006-38.076.012-59.958.018zm-209.533 42.536c-4.142 0-7.5 3.358-7.5 7.5v13.681c0 4.142 3.358 7.5 7.5 7.5s7.5-3.358 7.5-7.5v-13.681c0-4.142-3.358-7.5-7.5-7.5zm89.692 5.043c-14.459 0-26.222 12.763-26.222 28.45s11.763 28.45 26.222 28.45 26.222-12.763 26.222-28.45-11.763-28.45-26.222-28.45zm0 41.901c-6.188 0-11.222-6.034-11.222-13.45s5.034-13.45 11.222-13.45 11.222 6.034 11.222 13.45-5.034 13.45-11.222 13.45zm89.692-46.944c-4.142 0-7.5 3.358-7.5 7.5v13.681c0 4.142 3.358 7.5 7.5 7.5s7.5-3.358 7.5-7.5v-13.681c0-4.142-3.358-7.5-7.5-7.5z" fill="#000000" data-original="#000000" style="" class=""/></g></g></svg>
